<mxfile host="65bd71144e">
    <diagram id="OmgWh5ldgX5zN55XTv4A" name="Page-1">
        <mxGraphModel dx="1612" dy="1003" grid="1" gridSize="10" guides="1" tooltips="1" connect="1" arrows="1" fold="1" page="1" pageScale="1" pageWidth="850" pageHeight="1100" math="0" shadow="0">
            <root>
                <mxCell id="0"/>
                <mxCell id="1" parent="0"/>
                <mxCell id="2" value="Data" style="rounded=0;whiteSpace=wrap;html=1;" parent="1" vertex="1">
                    <mxGeometry x="1112.71" y="20" width="120" height="60" as="geometry"/>
                </mxCell>
                <mxCell id="8" style="edgeStyle=none;html=1;endArrow=none;endFill=0;exitX=0.7;exitY=0;exitDx=0;exitDy=0;exitPerimeter=0;rounded=0;" parent="1" source="20" target="7" edge="1">
                    <mxGeometry relative="1" as="geometry">
                        <mxPoint x="1202.71" y="540" as="sourcePoint"/>
                    </mxGeometry>
                </mxCell>
                <mxCell id="11" style="edgeStyle=orthogonalEdgeStyle;html=1;endArrow=none;endFill=0;exitX=0;exitY=0.5;exitDx=0;exitDy=0;exitPerimeter=0;entryX=1;entryY=0.5;entryDx=0;entryDy=0;rounded=0;" parent="1" source="20" target="135" edge="1">
                    <mxGeometry relative="1" as="geometry">
                        <mxPoint x="1070" y="770" as="sourcePoint"/>
                        <mxPoint x="1160" y="750" as="targetPoint"/>
                    </mxGeometry>
                </mxCell>
                <mxCell id="18" value="Output (open collector)" style="edgeLabel;html=1;align=center;verticalAlign=middle;resizable=0;points=[];" parent="11" vertex="1" connectable="0">
                    <mxGeometry relative="1" as="geometry">
                        <mxPoint x="-14" as="offset"/>
                    </mxGeometry>
                </mxCell>
                <mxCell id="17" style="edgeStyle=orthogonalEdgeStyle;html=1;endArrow=none;endFill=0;exitX=0.7;exitY=1;exitDx=0;exitDy=0;exitPerimeter=0;rounded=0;entryX=0.5;entryY=0;entryDx=0;entryDy=0;entryPerimeter=0;" parent="1" source="20" target="16" edge="1">
                    <mxGeometry relative="1" as="geometry">
                        <mxPoint x="1172.71" y="810" as="sourcePoint"/>
                    </mxGeometry>
                </mxCell>
                <mxCell id="9" style="edgeStyle=none;html=1;endArrow=none;endFill=0;exitX=1;exitY=0.5;exitDx=0;exitDy=0;exitPerimeter=0;rounded=0;" parent="1" source="5" target="7" edge="1">
                    <mxGeometry relative="1" as="geometry">
                        <mxPoint x="1152.71" y="370" as="sourcePoint"/>
                    </mxGeometry>
                </mxCell>
                <mxCell id="19" style="edgeStyle=none;html=1;endArrow=none;endFill=0;entryX=0.5;entryY=1;entryDx=0;entryDy=0;exitX=0;exitY=0.5;exitDx=0;exitDy=0;exitPerimeter=0;rounded=0;" parent="1" source="5" target="2" edge="1">
                    <mxGeometry relative="1" as="geometry">
                        <mxPoint x="1162.71" y="200" as="sourcePoint"/>
                        <mxPoint x="992.71" y="160" as="targetPoint"/>
                    </mxGeometry>
                </mxCell>
                <mxCell id="5" value="1k" style="pointerEvents=1;verticalLabelPosition=bottom;shadow=0;dashed=0;align=left;html=1;verticalAlign=top;shape=mxgraph.electrical.resistors.resistor_2;rotation=90;horizontal=0;" parent="1" vertex="1">
                    <mxGeometry x="1122.71" y="290" width="100" height="20" as="geometry"/>
                </mxCell>
                <mxCell id="7" value="" style="shape=waypoint;fillStyle=solid;size=6;pointerEvents=1;points=[];fillColor=none;resizable=0;rotatable=0;perimeter=centerPerimeter;snapToPoint=1;" parent="1" vertex="1">
                    <mxGeometry x="1152.71" y="620" width="40" height="40" as="geometry"/>
                </mxCell>
                <mxCell id="16" value="" style="pointerEvents=1;verticalLabelPosition=bottom;shadow=0;dashed=0;align=center;html=1;verticalAlign=top;shape=mxgraph.electrical.signal_sources.protective_earth;rotation=-90;" parent="1" vertex="1">
                    <mxGeometry x="1222.71" y="840" width="30" height="20" as="geometry"/>
                </mxCell>
                <mxCell id="20" value="" style="verticalLabelPosition=bottom;shadow=0;dashed=0;align=center;html=1;verticalAlign=top;shape=mxgraph.electrical.transistors.pnp_transistor_1;" vertex="1" parent="1">
                    <mxGeometry x="1102.71" y="700" width="100" height="100" as="geometry"/>
                </mxCell>
                <mxCell id="25" value="" style="childLayout=tableLayout;recursiveResize=0;shadow=0;fillColor=default;strokeColor=#C0C0C0;fontSize=12;spacing=2;spacingRight=0;" vertex="1" parent="1">
                    <mxGeometry x="250" y="460" width="100" height="210" as="geometry"/>
                </mxCell>
                <mxCell id="26" value="" style="shape=tableRow;horizontal=0;startSize=0;swimlaneHead=0;swimlaneBody=0;top=0;left=0;bottom=0;right=0;dropTarget=0;collapsible=0;recursiveResize=0;expand=0;fontStyle=0;fillColor=none;" vertex="1" parent="25">
                    <mxGeometry width="100" height="27" as="geometry"/>
                </mxCell>
                <mxCell id="27" value="VSS GND" style="connectable=0;recursiveResize=0;strokeColor=none;fillColor=none;align=right;whiteSpace=wrap;html=1;spacing=0;spacingRight=5;spacingLeft=5;" vertex="1" parent="26">
                    <mxGeometry width="100" height="27" as="geometry">
                        <mxRectangle width="100" height="27" as="alternateBounds"/>
                    </mxGeometry>
                </mxCell>
                <mxCell id="30" style="shape=tableRow;horizontal=0;startSize=0;swimlaneHead=0;swimlaneBody=0;top=0;left=0;bottom=0;right=0;dropTarget=0;collapsible=0;recursiveResize=0;expand=0;fontStyle=0;fillColor=none;" vertex="1" parent="25">
                    <mxGeometry y="27" width="100" height="26" as="geometry"/>
                </mxCell>
                <mxCell id="31" value="VDD +5V" style="connectable=0;recursiveResize=0;strokeColor=none;fillColor=none;align=right;whiteSpace=wrap;html=1;spacing=0;spacingRight=5;spacingLeft=5;" vertex="1" parent="30">
                    <mxGeometry width="100" height="26" as="geometry">
                        <mxRectangle width="100" height="26" as="alternateBounds"/>
                    </mxGeometry>
                </mxCell>
                <mxCell id="34" style="shape=tableRow;horizontal=0;startSize=0;swimlaneHead=0;swimlaneBody=0;top=0;left=0;bottom=0;right=0;dropTarget=0;collapsible=0;recursiveResize=0;expand=0;fontStyle=0;fillColor=none;" vertex="1" parent="25">
                    <mxGeometry y="53" width="100" height="25" as="geometry"/>
                </mxCell>
                <mxCell id="35" value="V0 NC" style="connectable=0;recursiveResize=0;strokeColor=none;fillColor=none;align=right;whiteSpace=wrap;html=1;spacing=0;spacingRight=5;spacingLeft=5;" vertex="1" parent="34">
                    <mxGeometry width="100" height="25" as="geometry">
                        <mxRectangle width="100" height="25" as="alternateBounds"/>
                    </mxGeometry>
                </mxCell>
                <mxCell id="38" style="shape=tableRow;horizontal=0;startSize=0;swimlaneHead=0;swimlaneBody=0;top=0;left=0;bottom=0;right=0;dropTarget=0;collapsible=0;recursiveResize=0;expand=0;fontStyle=0;fillColor=none;" vertex="1" parent="25">
                    <mxGeometry y="78" width="100" height="27" as="geometry"/>
                </mxCell>
                <mxCell id="39" value="RS" style="connectable=0;recursiveResize=0;strokeColor=none;fillColor=none;align=right;whiteSpace=wrap;html=1;spacing=0;spacingRight=5;spacingLeft=5;" vertex="1" parent="38">
                    <mxGeometry width="100" height="27" as="geometry">
                        <mxRectangle width="100" height="27" as="alternateBounds"/>
                    </mxGeometry>
                </mxCell>
                <mxCell id="40" style="shape=tableRow;horizontal=0;startSize=0;swimlaneHead=0;swimlaneBody=0;top=0;left=0;bottom=0;right=0;dropTarget=0;collapsible=0;recursiveResize=0;expand=0;fontStyle=0;fillColor=none;" vertex="1" parent="25">
                    <mxGeometry y="105" width="100" height="27" as="geometry"/>
                </mxCell>
                <mxCell id="41" value="R/W" style="connectable=0;recursiveResize=0;strokeColor=none;fillColor=none;align=right;whiteSpace=wrap;html=1;spacing=0;spacingRight=5;spacingLeft=5;" vertex="1" parent="40">
                    <mxGeometry width="100" height="27" as="geometry">
                        <mxRectangle width="100" height="27" as="alternateBounds"/>
                    </mxGeometry>
                </mxCell>
                <mxCell id="42" style="shape=tableRow;horizontal=0;startSize=0;swimlaneHead=0;swimlaneBody=0;top=0;left=0;bottom=0;right=0;dropTarget=0;collapsible=0;recursiveResize=0;expand=0;fontStyle=0;fillColor=none;" vertex="1" parent="25">
                    <mxGeometry y="132" width="100" height="26" as="geometry"/>
                </mxCell>
                <mxCell id="43" value="E" style="connectable=0;recursiveResize=0;strokeColor=none;fillColor=none;align=right;whiteSpace=wrap;html=1;spacing=0;spacingRight=5;spacingLeft=5;" vertex="1" parent="42">
                    <mxGeometry width="100" height="26" as="geometry">
                        <mxRectangle width="100" height="26" as="alternateBounds"/>
                    </mxGeometry>
                </mxCell>
                <mxCell id="44" style="shape=tableRow;horizontal=0;startSize=0;swimlaneHead=0;swimlaneBody=0;top=0;left=0;bottom=0;right=0;dropTarget=0;collapsible=0;recursiveResize=0;expand=0;fontStyle=0;fillColor=none;" vertex="1" parent="25">
                    <mxGeometry y="158" width="100" height="25" as="geometry"/>
                </mxCell>
                <mxCell id="45" value="LA +5V" style="connectable=0;recursiveResize=0;strokeColor=none;fillColor=none;align=right;whiteSpace=wrap;html=1;spacing=0;spacingRight=5;spacingLeft=5;" vertex="1" parent="44">
                    <mxGeometry width="100" height="25" as="geometry">
                        <mxRectangle width="100" height="25" as="alternateBounds"/>
                    </mxGeometry>
                </mxCell>
                <mxCell id="46" style="shape=tableRow;horizontal=0;startSize=0;swimlaneHead=0;swimlaneBody=0;top=0;left=0;bottom=0;right=0;dropTarget=0;collapsible=0;recursiveResize=0;expand=0;fontStyle=0;fillColor=none;" vertex="1" parent="25">
                    <mxGeometry y="183" width="100" height="27" as="geometry"/>
                </mxCell>
                <mxCell id="47" value="LK&amp;nbsp;0V" style="connectable=0;recursiveResize=0;strokeColor=none;fillColor=none;align=right;whiteSpace=wrap;html=1;spacing=0;spacingRight=5;spacingLeft=5;" vertex="1" parent="46">
                    <mxGeometry width="100" height="27" as="geometry">
                        <mxRectangle width="100" height="27" as="alternateBounds"/>
                    </mxGeometry>
                </mxCell>
                <mxCell id="48" value="" style="childLayout=tableLayout;recursiveResize=0;shadow=0;fillColor=default;strokeColor=#C0C0C0;fontSize=12;" vertex="1" parent="1">
                    <mxGeometry x="790" y="320" width="130" height="440" as="geometry"/>
                </mxCell>
                <mxCell id="49" value="" style="shape=tableRow;horizontal=0;startSize=0;swimlaneHead=0;swimlaneBody=0;top=0;left=0;bottom=0;right=0;dropTarget=0;collapsible=0;recursiveResize=0;expand=0;fontStyle=0;fillColor=none;fontSize=12;" vertex="1" parent="48">
                    <mxGeometry width="130" height="22" as="geometry"/>
                </mxCell>
                <mxCell id="50" value="GP0" style="connectable=0;recursiveResize=0;strokeColor=none;fillColor=none;align=left;whiteSpace=wrap;html=1;fontSize=12;spacing=0;spacingRight=5;spacingLeft=5;" vertex="1" parent="49">
                    <mxGeometry width="64" height="22" as="geometry">
                        <mxRectangle width="64" height="22" as="alternateBounds"/>
                    </mxGeometry>
                </mxCell>
                <mxCell id="51" value="VBUS" style="connectable=0;recursiveResize=0;strokeColor=none;fillColor=none;align=right;whiteSpace=wrap;html=1;fontSize=12;spacing=0;spacingRight=5;spacingLeft=5;" vertex="1" parent="49">
                    <mxGeometry x="64" width="66" height="22" as="geometry">
                        <mxRectangle width="66" height="22" as="alternateBounds"/>
                    </mxGeometry>
                </mxCell>
                <mxCell id="53" style="shape=tableRow;horizontal=0;startSize=0;swimlaneHead=0;swimlaneBody=0;top=0;left=0;bottom=0;right=0;dropTarget=0;collapsible=0;recursiveResize=0;expand=0;fontStyle=0;fillColor=none;fontSize=12;" vertex="1" parent="48">
                    <mxGeometry y="22" width="130" height="22" as="geometry"/>
                </mxCell>
                <mxCell id="54" value="GP1" style="connectable=0;recursiveResize=0;strokeColor=none;fillColor=none;align=left;whiteSpace=wrap;html=1;fontSize=12;spacing=0;spacingRight=5;spacingLeft=5;" vertex="1" parent="53">
                    <mxGeometry width="64" height="22" as="geometry">
                        <mxRectangle width="64" height="22" as="alternateBounds"/>
                    </mxGeometry>
                </mxCell>
                <mxCell id="55" value="VSYS" style="connectable=0;recursiveResize=0;strokeColor=none;fillColor=none;align=right;whiteSpace=wrap;html=1;fontSize=12;spacing=0;spacingRight=5;spacingLeft=5;" vertex="1" parent="53">
                    <mxGeometry x="64" width="66" height="22" as="geometry">
                        <mxRectangle width="66" height="22" as="alternateBounds"/>
                    </mxGeometry>
                </mxCell>
                <mxCell id="57" style="shape=tableRow;horizontal=0;startSize=0;swimlaneHead=0;swimlaneBody=0;top=0;left=0;bottom=0;right=0;dropTarget=0;collapsible=0;recursiveResize=0;expand=0;fontStyle=0;fillColor=none;fontSize=12;" vertex="1" parent="48">
                    <mxGeometry y="44" width="130" height="22" as="geometry"/>
                </mxCell>
                <mxCell id="58" value="GND" style="connectable=0;recursiveResize=0;strokeColor=none;fillColor=none;align=left;whiteSpace=wrap;html=1;fontSize=12;spacing=0;spacingRight=5;spacingLeft=5;" vertex="1" parent="57">
                    <mxGeometry width="64" height="22" as="geometry">
                        <mxRectangle width="64" height="22" as="alternateBounds"/>
                    </mxGeometry>
                </mxCell>
                <mxCell id="59" value="GND" style="connectable=0;recursiveResize=0;strokeColor=none;fillColor=none;align=right;whiteSpace=wrap;html=1;fontSize=12;spacing=0;spacingRight=5;spacingLeft=5;" vertex="1" parent="57">
                    <mxGeometry x="64" width="66" height="22" as="geometry">
                        <mxRectangle width="66" height="22" as="alternateBounds"/>
                    </mxGeometry>
                </mxCell>
                <mxCell id="87" style="shape=tableRow;horizontal=0;startSize=0;swimlaneHead=0;swimlaneBody=0;top=0;left=0;bottom=0;right=0;dropTarget=0;collapsible=0;recursiveResize=0;expand=0;fontStyle=0;fillColor=none;fontSize=12;" vertex="1" parent="48">
                    <mxGeometry y="66" width="130" height="22" as="geometry"/>
                </mxCell>
                <mxCell id="88" value="GP2" style="connectable=0;recursiveResize=0;strokeColor=none;fillColor=none;align=left;whiteSpace=wrap;html=1;fontSize=12;spacing=0;spacingRight=5;spacingLeft=5;" vertex="1" parent="87">
                    <mxGeometry width="64" height="22" as="geometry">
                        <mxRectangle width="64" height="22" as="alternateBounds"/>
                    </mxGeometry>
                </mxCell>
                <mxCell id="89" value="3V3_EN" style="connectable=0;recursiveResize=0;strokeColor=none;fillColor=none;align=right;whiteSpace=wrap;html=1;fontSize=12;spacing=0;spacingRight=5;spacingLeft=5;" vertex="1" parent="87">
                    <mxGeometry x="64" width="66" height="22" as="geometry">
                        <mxRectangle width="66" height="22" as="alternateBounds"/>
                    </mxGeometry>
                </mxCell>
                <mxCell id="90" style="shape=tableRow;horizontal=0;startSize=0;swimlaneHead=0;swimlaneBody=0;top=0;left=0;bottom=0;right=0;dropTarget=0;collapsible=0;recursiveResize=0;expand=0;fontStyle=0;fillColor=none;fontSize=12;" vertex="1" parent="48">
                    <mxGeometry y="88" width="130" height="22" as="geometry"/>
                </mxCell>
                <mxCell id="91" value="GP3" style="connectable=0;recursiveResize=0;strokeColor=none;fillColor=none;align=left;whiteSpace=wrap;html=1;fontSize=12;spacing=0;spacingRight=5;spacingLeft=5;" vertex="1" parent="90">
                    <mxGeometry width="64" height="22" as="geometry">
                        <mxRectangle width="64" height="22" as="alternateBounds"/>
                    </mxGeometry>
                </mxCell>
                <mxCell id="92" value="3V3(OUT)" style="connectable=0;recursiveResize=0;strokeColor=none;fillColor=none;align=right;whiteSpace=wrap;html=1;fontSize=12;spacing=0;spacingRight=5;spacingLeft=5;" vertex="1" parent="90">
                    <mxGeometry x="64" width="66" height="22" as="geometry">
                        <mxRectangle width="66" height="22" as="alternateBounds"/>
                    </mxGeometry>
                </mxCell>
                <mxCell id="93" style="shape=tableRow;horizontal=0;startSize=0;swimlaneHead=0;swimlaneBody=0;top=0;left=0;bottom=0;right=0;dropTarget=0;collapsible=0;recursiveResize=0;expand=0;fontStyle=0;fillColor=none;fontSize=12;" vertex="1" parent="48">
                    <mxGeometry y="110" width="130" height="22" as="geometry"/>
                </mxCell>
                <mxCell id="94" value="GP4" style="connectable=0;recursiveResize=0;strokeColor=none;fillColor=none;align=left;whiteSpace=wrap;html=1;fontSize=12;spacing=0;spacingRight=5;spacingLeft=5;" vertex="1" parent="93">
                    <mxGeometry width="64" height="22" as="geometry">
                        <mxRectangle width="64" height="22" as="alternateBounds"/>
                    </mxGeometry>
                </mxCell>
                <mxCell id="95" value="" style="connectable=0;recursiveResize=0;strokeColor=none;fillColor=none;align=right;whiteSpace=wrap;html=1;fontSize=12;spacing=0;spacingRight=5;spacingLeft=5;" vertex="1" parent="93">
                    <mxGeometry x="64" width="66" height="22" as="geometry">
                        <mxRectangle width="66" height="22" as="alternateBounds"/>
                    </mxGeometry>
                </mxCell>
                <mxCell id="96" style="shape=tableRow;horizontal=0;startSize=0;swimlaneHead=0;swimlaneBody=0;top=0;left=0;bottom=0;right=0;dropTarget=0;collapsible=0;recursiveResize=0;expand=0;fontStyle=0;fillColor=none;fontSize=12;" vertex="1" parent="48">
                    <mxGeometry y="132" width="130" height="22" as="geometry"/>
                </mxCell>
                <mxCell id="97" value="GP5" style="connectable=0;recursiveResize=0;strokeColor=none;fillColor=none;align=left;whiteSpace=wrap;html=1;fontSize=12;spacing=0;spacingRight=5;spacingLeft=5;" vertex="1" parent="96">
                    <mxGeometry width="64" height="22" as="geometry">
                        <mxRectangle width="64" height="22" as="alternateBounds"/>
                    </mxGeometry>
                </mxCell>
                <mxCell id="98" value="GP28" style="connectable=0;recursiveResize=0;strokeColor=none;fillColor=none;align=right;whiteSpace=wrap;html=1;fontSize=12;spacing=0;spacingRight=5;spacingLeft=5;" vertex="1" parent="96">
                    <mxGeometry x="64" width="66" height="22" as="geometry">
                        <mxRectangle width="66" height="22" as="alternateBounds"/>
                    </mxGeometry>
                </mxCell>
                <mxCell id="99" style="shape=tableRow;horizontal=0;startSize=0;swimlaneHead=0;swimlaneBody=0;top=0;left=0;bottom=0;right=0;dropTarget=0;collapsible=0;recursiveResize=0;expand=0;fontStyle=0;fillColor=none;fontSize=12;" vertex="1" parent="48">
                    <mxGeometry y="154" width="130" height="22" as="geometry"/>
                </mxCell>
                <mxCell id="100" value="GND" style="connectable=0;recursiveResize=0;strokeColor=none;fillColor=none;align=left;whiteSpace=wrap;html=1;fontSize=12;spacing=0;spacingRight=5;spacingLeft=5;" vertex="1" parent="99">
                    <mxGeometry width="64" height="22" as="geometry">
                        <mxRectangle width="64" height="22" as="alternateBounds"/>
                    </mxGeometry>
                </mxCell>
                <mxCell id="101" value="GND" style="connectable=0;recursiveResize=0;strokeColor=none;fillColor=none;align=right;whiteSpace=wrap;html=1;fontSize=12;spacing=0;spacingRight=5;spacingLeft=5;" vertex="1" parent="99">
                    <mxGeometry x="64" width="66" height="22" as="geometry">
                        <mxRectangle width="66" height="22" as="alternateBounds"/>
                    </mxGeometry>
                </mxCell>
                <mxCell id="102" style="shape=tableRow;horizontal=0;startSize=0;swimlaneHead=0;swimlaneBody=0;top=0;left=0;bottom=0;right=0;dropTarget=0;collapsible=0;recursiveResize=0;expand=0;fontStyle=0;fillColor=none;fontSize=12;" vertex="1" parent="48">
                    <mxGeometry y="176" width="130" height="22" as="geometry"/>
                </mxCell>
                <mxCell id="103" value="GP6" style="connectable=0;recursiveResize=0;strokeColor=none;fillColor=none;align=left;whiteSpace=wrap;html=1;fontSize=12;spacing=0;spacingRight=5;spacingLeft=5;" vertex="1" parent="102">
                    <mxGeometry width="64" height="22" as="geometry">
                        <mxRectangle width="64" height="22" as="alternateBounds"/>
                    </mxGeometry>
                </mxCell>
                <mxCell id="104" value="GP27" style="connectable=0;recursiveResize=0;strokeColor=none;fillColor=none;align=right;whiteSpace=wrap;html=1;fontSize=12;spacing=0;spacingRight=5;spacingLeft=5;" vertex="1" parent="102">
                    <mxGeometry x="64" width="66" height="22" as="geometry">
                        <mxRectangle width="66" height="22" as="alternateBounds"/>
                    </mxGeometry>
                </mxCell>
                <mxCell id="105" style="shape=tableRow;horizontal=0;startSize=0;swimlaneHead=0;swimlaneBody=0;top=0;left=0;bottom=0;right=0;dropTarget=0;collapsible=0;recursiveResize=0;expand=0;fontStyle=0;fillColor=none;fontSize=12;" vertex="1" parent="48">
                    <mxGeometry y="198" width="130" height="22" as="geometry"/>
                </mxCell>
                <mxCell id="106" value="GP7" style="connectable=0;recursiveResize=0;strokeColor=none;fillColor=none;align=left;whiteSpace=wrap;html=1;fontSize=12;spacing=0;spacingRight=5;spacingLeft=5;" vertex="1" parent="105">
                    <mxGeometry width="64" height="22" as="geometry">
                        <mxRectangle width="64" height="22" as="alternateBounds"/>
                    </mxGeometry>
                </mxCell>
                <mxCell id="107" value="GP26" style="connectable=0;recursiveResize=0;strokeColor=none;fillColor=none;align=right;whiteSpace=wrap;html=1;fontSize=12;spacing=0;spacingRight=5;spacingLeft=5;" vertex="1" parent="105">
                    <mxGeometry x="64" width="66" height="22" as="geometry">
                        <mxRectangle width="66" height="22" as="alternateBounds"/>
                    </mxGeometry>
                </mxCell>
                <mxCell id="108" style="shape=tableRow;horizontal=0;startSize=0;swimlaneHead=0;swimlaneBody=0;top=0;left=0;bottom=0;right=0;dropTarget=0;collapsible=0;recursiveResize=0;expand=0;fontStyle=0;fillColor=none;fontSize=12;" vertex="1" parent="48">
                    <mxGeometry y="220" width="130" height="22" as="geometry"/>
                </mxCell>
                <mxCell id="109" value="GP8" style="connectable=0;recursiveResize=0;strokeColor=none;fillColor=none;align=left;whiteSpace=wrap;html=1;fontSize=12;spacing=0;spacingRight=5;spacingLeft=5;" vertex="1" parent="108">
                    <mxGeometry width="64" height="22" as="geometry">
                        <mxRectangle width="64" height="22" as="alternateBounds"/>
                    </mxGeometry>
                </mxCell>
                <mxCell id="110" value="RUN" style="connectable=0;recursiveResize=0;strokeColor=none;fillColor=none;align=right;whiteSpace=wrap;html=1;fontSize=12;spacing=0;spacingRight=5;spacingLeft=5;" vertex="1" parent="108">
                    <mxGeometry x="64" width="66" height="22" as="geometry">
                        <mxRectangle width="66" height="22" as="alternateBounds"/>
                    </mxGeometry>
                </mxCell>
                <mxCell id="111" style="shape=tableRow;horizontal=0;startSize=0;swimlaneHead=0;swimlaneBody=0;top=0;left=0;bottom=0;right=0;dropTarget=0;collapsible=0;recursiveResize=0;expand=0;fontStyle=0;fillColor=none;fontSize=12;" vertex="1" parent="48">
                    <mxGeometry y="242" width="130" height="22" as="geometry"/>
                </mxCell>
                <mxCell id="112" value="GP9" style="connectable=0;recursiveResize=0;strokeColor=none;fillColor=none;align=left;whiteSpace=wrap;html=1;fontSize=12;spacing=0;spacingRight=5;spacingLeft=5;" vertex="1" parent="111">
                    <mxGeometry width="64" height="22" as="geometry">
                        <mxRectangle width="64" height="22" as="alternateBounds"/>
                    </mxGeometry>
                </mxCell>
                <mxCell id="113" value="GP22" style="connectable=0;recursiveResize=0;strokeColor=none;fillColor=none;align=right;whiteSpace=wrap;html=1;fontSize=12;spacing=0;spacingRight=5;spacingLeft=5;" vertex="1" parent="111">
                    <mxGeometry x="64" width="66" height="22" as="geometry">
                        <mxRectangle width="66" height="22" as="alternateBounds"/>
                    </mxGeometry>
                </mxCell>
                <mxCell id="114" style="shape=tableRow;horizontal=0;startSize=0;swimlaneHead=0;swimlaneBody=0;top=0;left=0;bottom=0;right=0;dropTarget=0;collapsible=0;recursiveResize=0;expand=0;fontStyle=0;fillColor=none;fontSize=12;" vertex="1" parent="48">
                    <mxGeometry y="264" width="130" height="22" as="geometry"/>
                </mxCell>
                <mxCell id="115" value="GND" style="connectable=0;recursiveResize=0;strokeColor=none;fillColor=none;align=left;whiteSpace=wrap;html=1;fontSize=12;spacing=0;spacingRight=5;spacingLeft=5;" vertex="1" parent="114">
                    <mxGeometry width="64" height="22" as="geometry">
                        <mxRectangle width="64" height="22" as="alternateBounds"/>
                    </mxGeometry>
                </mxCell>
                <mxCell id="116" value="GND" style="connectable=0;recursiveResize=0;strokeColor=none;fillColor=none;align=right;whiteSpace=wrap;html=1;fontSize=12;spacing=0;spacingRight=5;spacingLeft=5;" vertex="1" parent="114">
                    <mxGeometry x="64" width="66" height="22" as="geometry">
                        <mxRectangle width="66" height="22" as="alternateBounds"/>
                    </mxGeometry>
                </mxCell>
                <mxCell id="117" style="shape=tableRow;horizontal=0;startSize=0;swimlaneHead=0;swimlaneBody=0;top=0;left=0;bottom=0;right=0;dropTarget=0;collapsible=0;recursiveResize=0;expand=0;fontStyle=0;fillColor=none;fontSize=12;" vertex="1" parent="48">
                    <mxGeometry y="286" width="130" height="22" as="geometry"/>
                </mxCell>
                <mxCell id="118" value="GP10" style="connectable=0;recursiveResize=0;strokeColor=none;fillColor=none;align=left;whiteSpace=wrap;html=1;fontSize=12;spacing=0;spacingRight=5;spacingLeft=5;" vertex="1" parent="117">
                    <mxGeometry width="64" height="22" as="geometry">
                        <mxRectangle width="64" height="22" as="alternateBounds"/>
                    </mxGeometry>
                </mxCell>
                <mxCell id="119" value="GP21" style="connectable=0;recursiveResize=0;strokeColor=none;fillColor=none;align=right;whiteSpace=wrap;html=1;fontSize=12;spacing=0;spacingRight=5;spacingLeft=5;" vertex="1" parent="117">
                    <mxGeometry x="64" width="66" height="22" as="geometry">
                        <mxRectangle width="66" height="22" as="alternateBounds"/>
                    </mxGeometry>
                </mxCell>
                <mxCell id="120" style="shape=tableRow;horizontal=0;startSize=0;swimlaneHead=0;swimlaneBody=0;top=0;left=0;bottom=0;right=0;dropTarget=0;collapsible=0;recursiveResize=0;expand=0;fontStyle=0;fillColor=none;fontSize=12;" vertex="1" parent="48">
                    <mxGeometry y="308" width="130" height="22" as="geometry"/>
                </mxCell>
                <mxCell id="121" value="GP11" style="connectable=0;recursiveResize=0;strokeColor=none;fillColor=none;align=left;whiteSpace=wrap;html=1;fontSize=12;spacing=0;spacingRight=5;spacingLeft=5;" vertex="1" parent="120">
                    <mxGeometry width="64" height="22" as="geometry">
                        <mxRectangle width="64" height="22" as="alternateBounds"/>
                    </mxGeometry>
                </mxCell>
                <mxCell id="122" value="GP20" style="connectable=0;recursiveResize=0;strokeColor=none;fillColor=none;align=right;whiteSpace=wrap;html=1;fontSize=12;spacing=0;spacingRight=5;spacingLeft=5;" vertex="1" parent="120">
                    <mxGeometry x="64" width="66" height="22" as="geometry">
                        <mxRectangle width="66" height="22" as="alternateBounds"/>
                    </mxGeometry>
                </mxCell>
                <mxCell id="123" style="shape=tableRow;horizontal=0;startSize=0;swimlaneHead=0;swimlaneBody=0;top=0;left=0;bottom=0;right=0;dropTarget=0;collapsible=0;recursiveResize=0;expand=0;fontStyle=0;fillColor=none;fontSize=12;" vertex="1" parent="48">
                    <mxGeometry y="330" width="130" height="22" as="geometry"/>
                </mxCell>
                <mxCell id="124" value="GP12" style="connectable=0;recursiveResize=0;strokeColor=none;fillColor=none;align=left;whiteSpace=wrap;html=1;fontSize=12;spacing=0;spacingRight=5;spacingLeft=5;" vertex="1" parent="123">
                    <mxGeometry width="64" height="22" as="geometry">
                        <mxRectangle width="64" height="22" as="alternateBounds"/>
                    </mxGeometry>
                </mxCell>
                <mxCell id="125" value="GP19" style="connectable=0;recursiveResize=0;strokeColor=none;fillColor=none;align=right;whiteSpace=wrap;html=1;fontSize=12;spacing=0;spacingRight=5;spacingLeft=5;" vertex="1" parent="123">
                    <mxGeometry x="64" width="66" height="22" as="geometry">
                        <mxRectangle width="66" height="22" as="alternateBounds"/>
                    </mxGeometry>
                </mxCell>
                <mxCell id="126" style="shape=tableRow;horizontal=0;startSize=0;swimlaneHead=0;swimlaneBody=0;top=0;left=0;bottom=0;right=0;dropTarget=0;collapsible=0;recursiveResize=0;expand=0;fontStyle=0;fillColor=none;fontSize=12;" vertex="1" parent="48">
                    <mxGeometry y="352" width="130" height="22" as="geometry"/>
                </mxCell>
                <mxCell id="127" value="GP13" style="connectable=0;recursiveResize=0;strokeColor=none;fillColor=none;align=left;whiteSpace=wrap;html=1;fontSize=12;spacing=0;spacingRight=5;spacingLeft=5;" vertex="1" parent="126">
                    <mxGeometry width="64" height="22" as="geometry">
                        <mxRectangle width="64" height="22" as="alternateBounds"/>
                    </mxGeometry>
                </mxCell>
                <mxCell id="128" value="GP18" style="connectable=0;recursiveResize=0;strokeColor=none;fillColor=none;align=right;whiteSpace=wrap;html=1;fontSize=12;spacing=0;spacingRight=5;spacingLeft=5;" vertex="1" parent="126">
                    <mxGeometry x="64" width="66" height="22" as="geometry">
                        <mxRectangle width="66" height="22" as="alternateBounds"/>
                    </mxGeometry>
                </mxCell>
                <mxCell id="129" style="shape=tableRow;horizontal=0;startSize=0;swimlaneHead=0;swimlaneBody=0;top=0;left=0;bottom=0;right=0;dropTarget=0;collapsible=0;recursiveResize=0;expand=0;fontStyle=0;fillColor=none;fontSize=12;" vertex="1" parent="48">
                    <mxGeometry y="374" width="130" height="22" as="geometry"/>
                </mxCell>
                <mxCell id="130" value="GND" style="connectable=0;recursiveResize=0;strokeColor=none;fillColor=none;align=left;whiteSpace=wrap;html=1;fontSize=12;spacing=0;spacingRight=5;spacingLeft=5;" vertex="1" parent="129">
                    <mxGeometry width="64" height="22" as="geometry">
                        <mxRectangle width="64" height="22" as="alternateBounds"/>
                    </mxGeometry>
                </mxCell>
                <mxCell id="131" value="GND" style="connectable=0;recursiveResize=0;strokeColor=none;fillColor=none;align=right;whiteSpace=wrap;html=1;fontSize=12;spacing=0;spacingRight=5;spacingLeft=5;" vertex="1" parent="129">
                    <mxGeometry x="64" width="66" height="22" as="geometry">
                        <mxRectangle width="66" height="22" as="alternateBounds"/>
                    </mxGeometry>
                </mxCell>
                <mxCell id="132" style="shape=tableRow;horizontal=0;startSize=0;swimlaneHead=0;swimlaneBody=0;top=0;left=0;bottom=0;right=0;dropTarget=0;collapsible=0;recursiveResize=0;expand=0;fontStyle=0;fillColor=none;fontSize=12;" vertex="1" parent="48">
                    <mxGeometry y="396" width="130" height="22" as="geometry"/>
                </mxCell>
                <mxCell id="133" value="GP14" style="connectable=0;recursiveResize=0;strokeColor=none;fillColor=none;align=left;whiteSpace=wrap;html=1;fontSize=12;spacing=0;spacingRight=5;spacingLeft=5;" vertex="1" parent="132">
                    <mxGeometry width="64" height="22" as="geometry">
                        <mxRectangle width="64" height="22" as="alternateBounds"/>
                    </mxGeometry>
                </mxCell>
                <mxCell id="134" value="GP17" style="connectable=0;recursiveResize=0;strokeColor=none;fillColor=none;align=right;whiteSpace=wrap;html=1;fontSize=12;spacing=0;spacingRight=5;spacingLeft=5;" vertex="1" parent="132">
                    <mxGeometry x="64" width="66" height="22" as="geometry">
                        <mxRectangle width="66" height="22" as="alternateBounds"/>
                    </mxGeometry>
                </mxCell>
                <mxCell id="135" style="shape=tableRow;horizontal=0;startSize=0;swimlaneHead=0;swimlaneBody=0;top=0;left=0;bottom=0;right=0;dropTarget=0;collapsible=0;recursiveResize=0;expand=0;fontStyle=0;fillColor=none;fontSize=12;" vertex="1" parent="48">
                    <mxGeometry y="418" width="130" height="22" as="geometry"/>
                </mxCell>
                <mxCell id="136" value="GP15" style="connectable=0;recursiveResize=0;strokeColor=none;fillColor=none;align=left;whiteSpace=wrap;html=1;fontSize=12;spacing=0;spacingRight=5;spacingLeft=5;" vertex="1" parent="135">
                    <mxGeometry width="64" height="22" as="geometry">
                        <mxRectangle width="64" height="22" as="alternateBounds"/>
                    </mxGeometry>
                </mxCell>
                <mxCell id="137" value="GP16" style="connectable=0;recursiveResize=0;strokeColor=none;fillColor=none;align=right;whiteSpace=wrap;html=1;fontSize=12;spacing=0;spacingRight=5;spacingLeft=5;" vertex="1" parent="135">
                    <mxGeometry x="64" width="66" height="22" as="geometry">
                        <mxRectangle width="66" height="22" as="alternateBounds"/>
                    </mxGeometry>
                </mxCell>
                <mxCell id="65" value="" style="edgeStyle=orthogonalEdgeStyle;html=1;exitX=1;exitY=0.5;exitDx=0;exitDy=0;fontSize=12;endArrow=none;rounded=0;" edge="1" parent="1" source="46" target="63">
                    <mxGeometry relative="1" as="geometry">
                        <mxPoint x="400" y="705" as="targetPoint"/>
                        <mxPoint x="350" y="705" as="sourcePoint"/>
                    </mxGeometry>
                </mxCell>
                <mxCell id="63" value="" style="pointerEvents=1;verticalLabelPosition=bottom;shadow=0;dashed=0;align=center;html=1;verticalAlign=top;shape=mxgraph.electrical.signal_sources.protective_earth;rotation=-90;" vertex="1" parent="1">
                    <mxGeometry x="370" y="646.5" width="30" height="20" as="geometry"/>
                </mxCell>
                <mxCell id="70" value="" style="edgeStyle=orthogonalEdgeStyle;html=1;exitX=1;exitY=0.5;exitDx=0;exitDy=0;fontSize=12;endArrow=none;rounded=0;" edge="1" parent="1" source="26" target="67">
                    <mxGeometry relative="1" as="geometry">
                        <mxPoint x="390" y="364.5000000000002" as="targetPoint"/>
                        <mxPoint x="350" y="364.5000000000002" as="sourcePoint"/>
                    </mxGeometry>
                </mxCell>
                <mxCell id="67" value="" style="pointerEvents=1;verticalLabelPosition=bottom;shadow=0;dashed=0;align=center;html=1;verticalAlign=top;shape=mxgraph.electrical.signal_sources.protective_earth;rotation=-90;" vertex="1" parent="1">
                    <mxGeometry x="370" y="463.5" width="30" height="20" as="geometry"/>
                </mxCell>
                <mxCell id="71" style="edgeStyle=orthogonalEdgeStyle;html=1;exitX=1;exitY=0.5;exitDx=0;exitDy=0;fontSize=12;endArrow=none;endFill=0;entryX=0.396;entryY=0.483;entryDx=0;entryDy=0;entryPerimeter=0;rounded=0;" edge="1" parent="1" source="30" target="74">
                    <mxGeometry relative="1" as="geometry">
                        <mxPoint x="390" y="413" as="targetPoint"/>
                    </mxGeometry>
                </mxCell>
                <mxCell id="75" style="edgeStyle=orthogonalEdgeStyle;html=1;entryX=0.604;entryY=0.483;entryDx=0;entryDy=0;entryPerimeter=0;fontSize=12;endArrow=none;endFill=0;rounded=0;exitX=1;exitY=0.5;exitDx=0;exitDy=0;" edge="1" parent="1" source="44" target="74">
                    <mxGeometry relative="1" as="geometry">
                        <mxPoint x="440" y="638.5" as="sourcePoint"/>
                    </mxGeometry>
                </mxCell>
                <mxCell id="74" value="" style="shape=waypoint;fillStyle=solid;size=6;pointerEvents=1;points=[];fillColor=none;resizable=0;rotatable=0;perimeter=centerPerimeter;snapToPoint=1;" vertex="1" parent="1">
                    <mxGeometry x="420" y="480" width="40" height="40" as="geometry"/>
                </mxCell>
                <mxCell id="81" style="edgeStyle=none;html=1;entryX=0.625;entryY=0.517;entryDx=0;entryDy=0;entryPerimeter=0;fontSize=12;endArrow=none;endFill=0;rounded=0;" edge="1" parent="1" source="77" target="79">
                    <mxGeometry relative="1" as="geometry"/>
                </mxCell>
                <mxCell id="77" value="3.3/5V" style="rounded=0;whiteSpace=wrap;html=1;fontSize=12;fillColor=default;" vertex="1" parent="1">
                    <mxGeometry x="790" y="20" width="120" height="60" as="geometry"/>
                </mxCell>
                <mxCell id="152" style="edgeStyle=orthogonalEdgeStyle;rounded=0;jumpStyle=sharp;html=1;endArrow=none;endFill=0;entryX=1;entryY=0.5;entryDx=0;entryDy=0;" edge="1" parent="1" source="79" target="53">
                    <mxGeometry relative="1" as="geometry">
                        <mxPoint x="1040" y="350" as="targetPoint"/>
                        <Array as="points">
                            <mxPoint x="1040" y="160"/>
                            <mxPoint x="1040" y="353"/>
                        </Array>
                    </mxGeometry>
                </mxCell>
                <mxCell id="79" value="" style="shape=waypoint;fillStyle=solid;size=6;pointerEvents=1;points=[];fillColor=none;resizable=0;rotatable=0;perimeter=centerPerimeter;snapToPoint=1;" vertex="1" parent="1">
                    <mxGeometry x="830" y="140" width="40" height="40" as="geometry"/>
                </mxCell>
                <mxCell id="85" value="" style="edgeStyle=segmentEdgeStyle;endArrow=none;html=1;curved=0;rounded=0;endSize=8;startSize=8;fontSize=12;endFill=0;entryX=0.583;entryY=0.379;entryDx=0;entryDy=0;entryPerimeter=0;exitX=0.5;exitY=0.621;exitDx=0;exitDy=0;exitPerimeter=0;" edge="1" parent="1" source="79" target="74">
                    <mxGeometry width="50" height="50" relative="1" as="geometry">
                        <mxPoint x="800" y="170" as="sourcePoint"/>
                        <mxPoint x="750" y="220" as="targetPoint"/>
                    </mxGeometry>
                </mxCell>
                <mxCell id="148" style="rounded=0;jumpStyle=sharp;html=1;endArrow=none;endFill=0;edgeStyle=orthogonalEdgeStyle;exitX=0.545;exitY=0.575;exitDx=0;exitDy=0;exitPerimeter=0;entryX=1;entryY=0.5;entryDx=0;entryDy=0;" edge="1" parent="1" source="7" target="132">
                    <mxGeometry relative="1" as="geometry">
                        <mxPoint x="1010" y="690" as="targetPoint"/>
                    </mxGeometry>
                </mxCell>
                <mxCell id="150" value="Data read" style="edgeLabel;html=1;align=center;verticalAlign=middle;resizable=0;points=[];" vertex="1" connectable="0" parent="148">
                    <mxGeometry x="0.7051" y="-1" relative="1" as="geometry">
                        <mxPoint as="offset"/>
                    </mxGeometry>
                </mxCell>
                <mxCell id="153" value="" style="pointerEvents=1;verticalLabelPosition=bottom;shadow=0;dashed=0;align=center;html=1;verticalAlign=top;shape=mxgraph.electrical.signal_sources.protective_earth;rotation=-90;" vertex="1" parent="1">
                    <mxGeometry x="940" y="365" width="25" height="20" as="geometry"/>
                </mxCell>
                <mxCell id="154" style="edgeStyle=orthogonalEdgeStyle;rounded=0;jumpStyle=sharp;html=1;endArrow=none;endFill=0;entryX=0.5;entryY=0;entryDx=0;entryDy=0;entryPerimeter=0;" edge="1" parent="1" source="57" target="153">
                    <mxGeometry relative="1" as="geometry">
                        <mxPoint x="960" y="375" as="targetPoint"/>
                    </mxGeometry>
                </mxCell>
                <mxCell id="155" style="edgeStyle=orthogonalEdgeStyle;rounded=0;jumpStyle=sharp;html=1;entryX=0;entryY=0.5;entryDx=0;entryDy=0;endArrow=none;endFill=0;" edge="1" parent="1" source="42" target="123">
                    <mxGeometry relative="1" as="geometry"/>
                </mxCell>
                <mxCell id="156" style="edgeStyle=orthogonalEdgeStyle;rounded=0;jumpStyle=sharp;html=1;endArrow=none;endFill=0;entryX=0;entryY=0.5;entryDx=0;entryDy=0;exitX=1;exitY=0.5;exitDx=0;exitDy=0;" edge="1" parent="1" source="40" target="120">
                    <mxGeometry relative="1" as="geometry">
                        <mxPoint x="480" y="590" as="sourcePoint"/>
                        <mxPoint x="640" y="610" as="targetPoint"/>
                        <Array as="points">
                            <mxPoint x="590" y="578"/>
                            <mxPoint x="590" y="639"/>
                        </Array>
                    </mxGeometry>
                </mxCell>
                <mxCell id="158" style="edgeStyle=orthogonalEdgeStyle;rounded=0;jumpStyle=sharp;html=1;entryX=0;entryY=0.5;entryDx=0;entryDy=0;endArrow=none;endFill=0;exitX=1;exitY=0.5;exitDx=0;exitDy=0;" edge="1" parent="1" source="38" target="117">
                    <mxGeometry relative="1" as="geometry">
                        <mxPoint x="380" y="560" as="sourcePoint"/>
                        <Array as="points">
                            <mxPoint x="610" y="552"/>
                            <mxPoint x="610" y="617"/>
                        </Array>
                    </mxGeometry>
                </mxCell>
            </root>
        </mxGraphModel>
    </diagram>
</mxfile>